# xmcd
#
# Track frame offsets:
#	150
#	47699
#	78886
#	116533
#	135638
#	171629
#	198554
#	233312
#
# Disc length: 3586 seconds
#
# Revision: 1
# Processed by: cddbd v1.5.2PL0 Copyright (c) Steve Scherf et al.
# Submitted via: audiograbber 1.83.01
#
DISCID=620e0008
DTITLE=Bhai Satvinder Singh and Harvinder Singh - Hum Prem Bandhan Tum Badhe
DYEAR=2008
DGENRE=Gurbani
TTITLE0=Hum Prem Bandhan Tum Badhe
TTITLE1=Kahiaa Karna Ditta Lehna
TTITLE2=Koi Jann Har Siyo Devai Jor
TTITLE3=Naam Sada Sukhdayee
TTITLE4=Mein Andhle Ki Tek
TTITLE5=Maee Mero Pritam Ram
TTITLE6=Bikhai Bann Pheeka
TTITLE7=Sansaar Rogi Naam Daaru
EXTD=SIKHROOTS.COM
EXTT0=
EXTT1=
EXTT2=
EXTT3=
EXTT4=
EXTT5=
EXTT6=
EXTT7=
PLAYORDER=
